<svg width="113" height="83" viewBox="0 0 113 83" fill="none" xmlns="http://www.w3.org/2000/svg">
<rect x="47" y="30" width="2" height="2" fill="black"/>
<path d="M32.5 26L25.4141 32.9999M23.5 35L21.5 37" stroke="black" stroke-width="2" stroke-linecap="round"/>
<path d="M95.3129 73.645C95.1681 73.7745 95.0947 73.8146 95.0877 73.8196C94.8714 73.8854 94.2287 73.9794 93.0876 74.0619C91.9794 74.142 90.5432 74.2039 88.8867 74.2505C85.5762 74.3438 81.4337 74.375 77.375 74.375C73.3184 74.375 69.3544 74.3438 66.4039 74.3126C64.9288 74.297 63.7075 74.2814 62.8551 74.2697C62.4289 74.2638 62.0949 74.2589 61.8676 74.2555L61.8214 74.2548C61.665 74.1694 61.4409 74.0441 61.1666 73.8829C60.5985 73.5491 59.821 73.0645 58.9852 72.4634C57.2733 71.2323 55.4791 69.6259 54.6131 67.9312C53.7648 66.2712 52.9181 63.5151 52.271 61.0842C51.994 60.0435 51.7594 59.0855 51.5827 58.3347C52.2483 58.3668 53.0975 58.405 54.0994 58.4444C56.6952 58.5463 60.3181 58.6561 64.428 58.6875C72.6272 58.7501 82.8399 58.5017 90.699 57.2341C93.3156 56.8121 95.2928 55.9514 97.0981 55.1655C97.2258 55.1099 97.3527 55.0547 97.4788 55C99.3886 54.1726 101.173 53.4542 103.607 53.2455C104.607 53.1596 105.927 53.1582 107.027 53.1809C107.031 53.181 107.035 53.1811 107.038 53.1812C106.799 53.671 106.514 54.25 106.193 54.8975C105.165 56.9691 103.764 59.7387 102.272 62.5368C100.777 65.3399 99.2013 68.1499 97.8213 70.3119C97.1296 71.3955 96.5044 72.289 95.9765 72.93C95.7122 73.251 95.4903 73.4864 95.3129 73.645ZM62.0693 74.3871C62.0694 74.3872 62.0694 74.3872 62.0693 74.3872L62.0693 74.3871Z" stroke="black" stroke-width="2.5"/>
<path d="M51.5105 57.9998C46.5 57.9998 45.4995 56 45.5 55C45.5005 54 45.5005 52.5 47.5105 51.9998C49.6717 51.4619 76 54.3523 85.0105 51.9998C94.0209 49.6472 100.99 47.5002 102 47C103.01 46.4998 108.489 46.2526 110 46.9999C111.511 47.7473 111.511 47.9155 111.511 49.4998C111.511 51 107.51 52.9998 107.51 52.9998" stroke="black" stroke-width="2"/>
<rect x="15" y="9" width="24" height="37" rx="2" stroke="black" stroke-width="2"/>
<line x1="32" y1="20.4142" x2="21.4142" y2="31" stroke="black" stroke-width="2" stroke-linecap="round"/>
<path d="M49 2H111.5" stroke="black" stroke-width="2.5" stroke-linecap="round"/>
<path d="M96 43L96 2" stroke="black" stroke-width="2" stroke-linecap="round"/>
<path d="M86.5 46.5L91 2" stroke="black" stroke-width="2" stroke-linecap="round"/>
<path d="M103 43L103 2" stroke="black" stroke-width="2" stroke-linecap="round"/>
<path d="M109 43L109 2" stroke="black" stroke-width="2" stroke-linecap="round"/>
<line x1="91" y1="7.75" x2="109" y2="7.75" stroke="black" stroke-width="2.5"/>
<rect x="44" y="21" width="8" height="8" rx="1" stroke="black" stroke-width="2"/>
<rect x="1" y="21" width="8" height="8" rx="1" stroke="black" stroke-width="2"/>
<rect x="4" y="30" width="2" height="2" fill="black"/>
<path d="M75 53V37.5" stroke="black" stroke-width="2"/>
<path d="M75 38C75 36 73.2089 35 71.5 35C70 35 69 36.5 68.5 39" stroke="black" stroke-width="2" stroke-linecap="round"/>
<path d="M23.9201 71H29.0799L29.9132 81H23.0868L23.9201 71Z" stroke="black" stroke-width="2"/>
<rect x="70.5" y="48.5" width="1" height="3" stroke="black"/>
<rect x="78.5" y="48.5" width="1" height="3" stroke="black"/>
<path d="M39 57C39 64.732 33.4036 71 26.5 71C19.5964 71 14 64.732 14 57" stroke="black" stroke-width="2"/>
<path d="M13.7346 52H39.2654C39.7631 52 40.185 52.3659 40.2554 52.8586L40.6839 55.8586C40.77 56.461 40.3025 57 39.694 57H13.306C12.6975 57 12.23 56.461 12.3161 55.8586L12.7446 52.8586C12.815 52.3659 13.2369 52 13.7346 52Z" stroke="black" stroke-width="2"/>
<path d="M60.1895 74.2212L60.4908 74.3371C61.814 74.846 62.2022 76.532 61.2349 77.5684L58.1585 80.8646C57.7802 81.2699 57.2507 81.5 56.6963 81.5H54.6255C54.157 81.5 53.7537 81.1693 53.6618 80.7099C53.6048 80.4252 53.6767 80.1299 53.8581 79.9032L57.9098 74.8385C58.4541 74.1581 59.3763 73.9084 60.1895 74.2212Z" stroke="black" stroke-width="2"/>
<path d="M93.2393 74.5601L93.1245 74.5983C91.682 75.0784 91.2814 76.9288 92.3963 77.9625L95.097 80.4666C95.4668 80.8095 95.9525 81 96.4568 81H99.0933C99.4395 81 99.74 80.7611 99.8179 80.4237C99.8734 80.1839 99.8065 79.9321 99.6394 79.7514L95.3396 75.1001C94.8063 74.5232 93.9847 74.312 93.2393 74.5601Z" stroke="black" stroke-width="2"/>
</svg>
