<svg width="111" height="84" viewBox="0 0 111 84" fill="none" xmlns="http://www.w3.org/2000/svg">
<path d="M27.0021 3.99976L105.502 81.9998M35 4.00002L104.002 71.4997" stroke="black" stroke-width="2" stroke-linecap="round"/>
<path d="M76 8V44M54 8V22M1.5 18C2.3 17.6 28.1667 17.8333 41 18M1.5 11.5H34.5M1.5 5.5V48M1.5 54.5V81.5" stroke="black" stroke-width="2" stroke-linecap="round"/>
<path d="M65 2H79.5549L79.9236 7H50.0764L50.4451 2H65Z" stroke="black" stroke-width="2"/>
<circle cx="25.5" cy="37.5" r="9.5" stroke="black" stroke-width="2"/>
<circle cx="25.5" cy="37.5" r="14.5" stroke="black" stroke-width="2"/>
<rect x="53" y="71" width="14" height="12" rx="1" stroke="black" stroke-width="2"/>
<rect x="73" y="71" width="16" height="12" rx="1" stroke="black" stroke-width="2"/>
<rect x="61" y="59" width="14" height="12" rx="1" stroke="black" stroke-width="2"/>
<line x1="60" y1="64" x2="75" y2="64" stroke="black" stroke-width="2"/>
<path d="M85 80V82" stroke="black" stroke-width="2" stroke-linecap="round"/>
<path d="M57 73V75" stroke="black" stroke-width="2" stroke-linecap="round"/>
<path d="M57 72V74" stroke="black" stroke-width="2" stroke-linecap="round"/>
<line x1="15" y1="37.5" x2="36" y2="37.5" stroke="black"/>
<line x1="25.5" y1="48" x2="25.5" y2="27" stroke="black"/>
<path d="M42.0011 73.0001H1.5V67.4891C1.69625 67.4872 1.9197 67.4852 2.16845 67.4831C3.2253 67.4744 4.73885 67.4646 6.56463 67.4607C10.2168 67.4529 15.1156 67.4686 20.1062 67.5622C25.1004 67.6559 30.1718 67.8274 34.1746 68.1299C36.1784 68.2814 37.8936 68.4642 39.1894 68.6824C39.8385 68.7917 40.3612 68.9064 40.7529 69.0236C40.9482 69.082 41.0975 69.1371 41.2066 69.1863C41.315 69.235 41.3565 69.2658 41.3596 69.2681C41.3598 69.2683 41.3599 69.2683 41.3598 69.2683C42.0172 69.8161 42.3158 70.3282 42.445 70.7533C42.5754 71.1824 42.5558 71.5982 42.4576 71.9836C42.3578 72.3751 42.1802 72.7191 42.0196 72.9713C42.0134 72.9811 42.0072 72.9907 42.0011 73.0001ZM41.7581 73.3296C41.7576 73.3302 41.7576 73.3302 41.7582 73.3295L41.7581 73.3296Z" stroke="black" stroke-width="2"/>
<path d="M42 73V82.5" stroke="black" stroke-width="2" stroke-linecap="round"/>
<path d="M12.7967 67.6752C12.6204 67.6656 12.4008 67.6513 12.1469 67.6304C11.4448 67.5726 10.4839 67.4641 9.4463 67.2618C8.40691 67.0591 7.30291 66.7645 6.30946 66.3391C5.31211 65.912 4.45787 65.3665 3.88367 64.6794C3.20634 63.8689 2.67249 62.5733 2.30382 61.4297C2.15681 60.9737 2.03944 60.5528 1.95187 60.2135C2.42895 60.3439 3.08896 60.5164 3.86737 60.6993C5.49055 61.0806 7.64149 61.5101 9.72685 61.6928C11.4248 61.8416 12.2175 63.2724 12.5702 64.9335C12.7421 65.7431 12.7934 66.5492 12.8007 67.1576C12.8031 67.3543 12.8008 67.5291 12.7967 67.6752Z" stroke="black"/>
<line x1="65" y1="16.5" x2="75" y2="16.5" stroke="black"/>
<line x1="70" y1="26.5" x2="75" y2="26.5" stroke="black"/>
<line x1="55" y1="11.5" x2="61" y2="11.5" stroke="black"/>
<line x1="70.5" y1="17" x2="70.5" y2="20" stroke="black"/>
</svg>
