<svg width="104" height="85" viewBox="0 0 104 85" fill="none" xmlns="http://www.w3.org/2000/svg">
<path d="M10.0003 49H29.0003C29.5526 49 30.0003 49.4477 30.0003 50V64C30.0003 64.5523 29.5526 65 29.0003 65H17.3412C17.0651 65 16.8412 64.7761 16.8412 64.5C16.8412 63.1193 15.722 62 14.3412 62H10C9.44775 62 9.00003 61.5523 9.00004 61L9.00029 50C9.0003 49.4477 9.44801 49 10.0003 49Z" stroke="black" stroke-width="2"/>
<path d="M3 50.4063C2.99998 50.1919 3.10128 49.9358 3.68434 49.6545C4.27623 49.369 5.13784 49.1871 6.10006 49.0903C7.04294 48.9953 7.99726 48.9896 8.72342 49.0089C8.82018 49.0115 8.91257 49.0145 9 49.0178V62H3.00003L3.00004 61.4914L3.00012 57.9276C3.00016 55.1874 3.00016 52.0389 3 50.4063Z" stroke="black" stroke-width="2"/>
<path d="M3 63V84H11.5M19 84H18M11.5 62V84M11.5 84H18M18 65.5V84" stroke="black" stroke-width="2"/>
<rect x="18" y="72" width="21" height="12" stroke="black" stroke-width="2"/>
<path d="M18 67H40" stroke="black" stroke-width="2"/>
<path d="M46 83.9999H39V61.9362C39.1344 61.9299 39.281 61.924 39.4377 61.919C40.2573 61.8933 41.3359 61.8948 42.403 61.9989C43.4896 62.1048 44.4742 62.3092 45.1579 62.6403C45.8288 62.9651 46 63.2908 46 63.6177V63.6383V63.6592V63.6804V63.7019V63.7238V63.746V63.7685V63.7913V63.8145V63.838V63.8617V63.8858V63.9102V63.935V63.96V63.9853V64.011V64.0369V64.0632V64.0897V64.1166V64.1437V64.1712V64.199V64.227V64.2553V64.284V64.3129V64.3421V64.3716V64.4014V64.4315V64.4618V64.4925V64.5234V64.5546V64.5861V64.6179V64.6499V64.6822V64.7148V64.7476V64.7807V64.8141V64.8478V64.8817V64.9159V64.9503V64.985V65.02V65.0552V65.0907V65.1264V65.1624V65.1986V65.2351V65.2719V65.3088V65.3461V65.3836V65.4213V65.4592V65.4974V65.5359V65.5746V65.6135V65.6526V65.692V65.7316V65.7715V65.8115V65.8518V65.8924V65.9331V65.9741V66.0153V66.0567V66.0983V66.1402V66.1823V66.2245V66.267V66.3097V66.3527V66.3958V66.4391V66.4827V66.5264V66.5704V66.6145V66.6589V66.7034V66.7481V66.7931V66.8382V66.8836V66.9291V66.9748V67.0207V67.0668V67.113V67.1595V67.2061V67.2529V67.2999V67.3471V67.3945V67.442V67.4897V67.5376V67.5856V67.6338V67.6822V67.7308V67.7795V67.8284V67.8774V67.9266V67.976V68.0255V68.0752V68.125V68.175V68.2251V68.2754V68.3258V68.3764V68.4272V68.478V68.5291V68.5802V68.6315V68.683V68.7346V68.7863V68.8381V68.8901V68.9422V68.9945V69.0469V69.0994V69.152V69.2048V69.2577V69.3107V69.3638V69.417V69.4704V69.5239V69.5775V69.6312V69.685V69.7389V69.793V69.8471V69.9013V69.9557V70.0102V70.0647V70.1194V70.1741V70.229V70.284V70.339V70.3941V70.4494V70.5047V70.5601V70.6156V70.6712V70.7269V70.7826V70.8384V70.8944V70.9503V71.0064V71.0626V71.1188V71.1751V71.2314V71.2879V71.3444V71.4009V71.4576V71.5143V71.571V71.6279V71.6847V71.7417V71.7987V71.8557V71.9128V71.97V72.0272V72.0845V72.1418V72.1991V72.2565V72.314V72.3715V72.429V72.4866V72.5442V72.6018V72.6595V72.7172V72.775V72.8328V72.8906V72.9484V73.0063V73.0641V73.122V73.18V73.2379V73.2959V73.3539V73.4119V73.4699V73.528V73.586V73.6441V73.7021V73.7602V73.8183V73.8764V73.9345V73.9926V74.0507V74.1088V74.1668V74.2249V74.283V74.3411V74.3992V74.4572V74.5153V74.5733V74.6313V74.6893V74.7473V74.8053V74.8632V74.9212V74.9791V75.0369V75.0948V75.1526V75.2104V75.2682V75.3259V75.3837V75.4413V75.499V75.5566V75.6141V75.6717V75.7291V75.7866V75.844V75.9013V75.9586V76.0159V76.0731V76.1302V76.1873V76.2444V76.3014V76.3583V76.4152V76.472V76.5288V76.5854V76.6421V76.6986V76.7551V76.8116V76.8679V76.9242V76.9804V77.0365V77.0926V77.1486V77.2045V77.2603V77.316V77.3717V77.4273V77.4828V77.5382V77.5935V77.6487V77.7038V77.7588V77.8138V77.8686V77.9234V77.978V78.0326V78.087V78.1414V78.1956V78.2497V78.3037V78.3577V78.4115V78.4651V78.5187V78.5722V78.6255V78.6788V78.7319V78.7849V78.8377V78.8905V78.9431V78.9956V79.0479V79.1002V79.1523V79.2042V79.2561V79.3078V79.3593V79.4108V79.462V79.5132V79.5642V79.615V79.6658V79.7163V79.7667V79.817V79.8671V79.9171V79.9669V80.0166V80.0661V80.1154V80.1646V80.2136V80.2625V80.3112V80.3597V80.408V80.4562V80.5043V80.5521V80.5998V80.6473V80.6946V80.7418V80.7887V80.8355V80.8821V80.9286V80.9748V81.0209V81.0667V81.1124V81.1579V81.2032V81.2483V81.2932V81.338V81.3825V81.4268V81.4709V81.5148V81.5586V81.6021V81.6454V81.6885V81.7314V81.774V81.8165V81.8588V81.9008V81.9426V81.9842V82.0256V82.0668V82.1077V82.1485V82.1889V82.2292V82.2693V82.3091V82.3487V82.388V82.4271V82.466V82.5047V82.5431V82.5812V82.6192V82.6568V82.6943V82.7315V82.7684V82.8051V82.8416V82.8778V82.9137V82.9494V82.9849V83.0201V83.055V83.0897V83.1241V83.1582V83.1921V83.2257V83.2591V83.2921V83.325V83.3575V83.3898V83.4218V83.4535V83.4849V83.5161V83.547V83.5776V83.6079V83.6379V83.6677V83.6971V83.7263V83.7552V83.7838V83.8121V83.8401V83.8678V83.8952V83.9223V83.9492V83.9757V83.9999Z" stroke="black" stroke-width="2"/>
<line x1="30" y1="62" x2="39" y2="62" stroke="black" stroke-width="2"/>
<path d="M94.9997 49H75.9997C75.4474 49 74.9997 49.4477 74.9997 50V64C74.9997 64.5523 75.4474 65 75.9997 65H87.6588C87.9349 65 88.1588 64.7761 88.1588 64.5C88.1588 63.1193 89.278 62 90.6588 62H95C95.5522 62 96 61.5523 96 61L95.9997 50C95.9997 49.4477 95.552 49 94.9997 49Z" stroke="black" stroke-width="2"/>
<path d="M102 50.4063C102 50.1919 101.899 49.9358 101.316 49.6545C100.724 49.369 99.8622 49.1871 98.8999 49.0903C97.9571 48.9953 97.0027 48.9896 96.2766 49.0089C96.1798 49.0115 96.0874 49.0145 96 49.0178V62H102L102 61.4914L102 57.9276C102 55.1874 102 52.0389 102 50.4063Z" stroke="black" stroke-width="2"/>
<path d="M102 63V84H93.5M86 84H87M93.5 62V84M93.5 84H87M87 65.5V84" stroke="black" stroke-width="2"/>
<rect x="-1" y="1" width="21" height="12" transform="matrix(-1 0 0 1 86 71)" stroke="black" stroke-width="2"/>
<path d="M87 67H65" stroke="black" stroke-width="2"/>
<path d="M59 83.9999H66V61.9362C65.8656 61.9299 65.719 61.924 65.5623 61.919C64.7427 61.8933 63.6641 61.8948 62.597 61.9989C61.5104 62.1048 60.5258 62.3092 59.8421 62.6403C59.1712 62.9651 59 63.2908 59 63.6177V63.6383V63.6592V63.6804V63.7019V63.7238V63.746V63.7685V63.7913V63.8145V63.838V63.8617V63.8858V63.9102V63.935V63.96V63.9853V64.011V64.0369V64.0632V64.0897V64.1166V64.1437V64.1712V64.199V64.227V64.2553V64.284V64.3129V64.3421V64.3716V64.4014V64.4315V64.4618V64.4925V64.5234V64.5546V64.5861V64.6179V64.6499V64.6822V64.7148V64.7476V64.7807V64.8141V64.8478V64.8817V64.9159V64.9503V64.985V65.02V65.0552V65.0907V65.1264V65.1624V65.1986V65.2351V65.2719V65.3088V65.3461V65.3836V65.4213V65.4592V65.4974V65.5359V65.5746V65.6135V65.6526V65.692V65.7316V65.7715V65.8115V65.8518V65.8924V65.9331V65.9741V66.0153V66.0567V66.0983V66.1402V66.1823V66.2245V66.267V66.3097V66.3527V66.3958V66.4391V66.4827V66.5264V66.5704V66.6145V66.6589V66.7034V66.7481V66.7931V66.8382V66.8836V66.9291V66.9748V67.0207V67.0668V67.113V67.1595V67.2061V67.2529V67.2999V67.3471V67.3945V67.442V67.4897V67.5376V67.5856V67.6338V67.6822V67.7308V67.7795V67.8284V67.8774V67.9266V67.976V68.0255V68.0752V68.125V68.175V68.2251V68.2754V68.3258V68.3764V68.4272V68.478V68.5291V68.5802V68.6315V68.683V68.7346V68.7863V68.8381V68.8901V68.9422V68.9945V69.0469V69.0994V69.152V69.2048V69.2577V69.3107V69.3638V69.417V69.4704V69.5239V69.5775V69.6312V69.685V69.7389V69.793V69.8471V69.9013V69.9557V70.0102V70.0647V70.1194V70.1741V70.229V70.284V70.339V70.3941V70.4494V70.5047V70.5601V70.6156V70.6712V70.7269V70.7826V70.8384V70.8944V70.9503V71.0064V71.0626V71.1188V71.1751V71.2314V71.2879V71.3444V71.4009V71.4576V71.5143V71.571V71.6279V71.6847V71.7417V71.7987V71.8557V71.9128V71.97V72.0272V72.0845V72.1418V72.1991V72.2565V72.314V72.3715V72.429V72.4866V72.5442V72.6018V72.6595V72.7172V72.775V72.8328V72.8906V72.9484V73.0063V73.0641V73.122V73.18V73.2379V73.2959V73.3539V73.4119V73.4699V73.528V73.586V73.6441V73.7021V73.7602V73.8183V73.8764V73.9345V73.9926V74.0507V74.1088V74.1668V74.2249V74.283V74.3411V74.3992V74.4572V74.5153V74.5733V74.6313V74.6893V74.7473V74.8053V74.8632V74.9212V74.9791V75.0369V75.0948V75.1526V75.2104V75.2682V75.3259V75.3837V75.4413V75.499V75.5566V75.6141V75.6717V75.7291V75.7866V75.844V75.9013V75.9586V76.0159V76.0731V76.1302V76.1873V76.2444V76.3014V76.3583V76.4152V76.472V76.5288V76.5854V76.6421V76.6986V76.7551V76.8116V76.8679V76.9242V76.9804V77.0365V77.0926V77.1486V77.2045V77.2603V77.316V77.3717V77.4273V77.4828V77.5382V77.5935V77.6487V77.7038V77.7588V77.8138V77.8686V77.9234V77.978V78.0326V78.087V78.1414V78.1956V78.2497V78.3037V78.3577V78.4115V78.4651V78.5187V78.5722V78.6255V78.6788V78.7319V78.7849V78.8377V78.8905V78.9431V78.9956V79.0479V79.1002V79.1523V79.2042V79.2561V79.3078V79.3593V79.4108V79.462V79.5132V79.5642V79.615V79.6658V79.7163V79.7667V79.817V79.8671V79.9171V79.9669V80.0166V80.0661V80.1154V80.1646V80.2136V80.2625V80.3112V80.3597V80.408V80.4562V80.5043V80.5521V80.5998V80.6473V80.6946V80.7418V80.7887V80.8355V80.8821V80.9286V80.9748V81.0209V81.0667V81.1124V81.1579V81.2032V81.2483V81.2932V81.338V81.3825V81.4268V81.4709V81.5148V81.5586V81.6021V81.6454V81.6885V81.7314V81.774V81.8165V81.8588V81.9008V81.9426V81.9842V82.0256V82.0668V82.1077V82.1485V82.1889V82.2292V82.2693V82.3091V82.3487V82.388V82.4271V82.466V82.5047V82.5431V82.5812V82.6192V82.6568V82.6943V82.7315V82.7684V82.8051V82.8416V82.8778V82.9137V82.9494V82.9849V83.0201V83.055V83.0897V83.1241V83.1582V83.1921V83.2257V83.2591V83.2921V83.325V83.3575V83.3898V83.4218V83.4535V83.4849V83.5161V83.547V83.5776V83.6079V83.6379V83.6677V83.6971V83.7263V83.7552V83.7838V83.8121V83.8401V83.8678V83.8952V83.9223V83.9492V83.9757V83.9999Z" stroke="black" stroke-width="2"/>
<line y1="-1" x2="9" y2="-1" transform="matrix(-1 0 0 1 75 63)" stroke="black" stroke-width="2"/>
<line x1="20" y1="30" x2="20" y2="46" stroke="black" stroke-width="2"/>
<path d="M19.4997 30.5C19.4997 30.5 25.8439 28.1599 25.4997 25C25.3292 23.435 23.9469 23.0094 23.4997 21.5C22.945 19.6278 23.4997 16.5 23.4997 16.5M19.4997 34.5C19.4997 34.5 17.1111 33.988 15.9997 33C14.6943 31.8397 14.4422 30.6895 13.9997 29C13.4555 26.9222 13.9997 23.5 13.9997 23.5M35 15C40.8176 17.7876 45.8027 19.0542 50 19.3312C59.6553 19.9684 65.1413 15.3688 67 12M36.5 18.5C67.5 45.5 66.5 39 68.5 42M36.5 42C54 38.5 62.3333 33.5 62.5 27.5" stroke="black" stroke-width="2" stroke-linecap="round"/>
<path d="M55 20V23.5M59.5 18V23.5M45 19V22.5M37 42.5V44.5M41 42.5V44.5M45 40.5V44.5M50 39V42.5M55 36.5V40.5M59.5 36.5V42.5M65 40.5V42.5" stroke="black" stroke-linecap="round"/>
<path d="M12.7724 43.2402C11.276 43.2402 9.71703 43.3758 8.22586 43.2402C6.30929 43.066 6.05141 41.2586 6.05141 39.7809C6.05141 39.348 5.81086 37.9071 6.09534 37.5515C6.29652 37.3 3.46627 35.1942 3.10822 34.8499C2.59667 34.3581 1.5289 33.7865 1.31814 33.0489C1.04829 32.1044 2.79358 31.6201 3.48161 31.4235C5.37048 30.8838 5.0193 28.6415 4.45901 27.0307C4.25034 26.4308 2.24538 23.8846 2.9325 23.1211C3.43803 22.5594 3.95364 22.4427 4.42606 21.7813C5.37128 20.458 5.50062 19.6187 5.75489 17.8387C5.99839 16.1343 6.05141 14.4619 6.05141 12.743C6.05141 12.3372 5.93348 11.6516 6.09534 11.2605C6.39512 10.536 8.36813 8.64673 9.31308 8.64673C10.7628 8.64673 12.0637 7.05716 13.1568 6.28559C14.5787 5.28192 15.7509 3.74209 17.319 2.95803C17.5245 2.85528 18.2985 2.28993 18.4611 2.36499C18.8491 2.54404 19.2737 2.7786 19.6801 2.9141C20.1947 3.08562 20.8898 3.47507 21.3824 3.74873C21.6364 3.88986 21.6535 4.25004 21.6679 4.49551C21.6899 4.86941 22.6608 4.69319 22.8979 4.69319C23.8783 4.69319 25.8298 4.3223 26.5 5.2972C27.6518 6.9725 28.3912 8.47208 28.0375 10.5356C27.9195 11.224 29.8549 10.9529 30.2778 11.0298C31.6326 11.2762 31.3135 12.9535 31.3651 13.984C31.4064 14.8103 31.5518 15.6141 31.5518 16.444C31.5518 17.1538 32.0057 17.1422 32.628 17.5422C34.3479 18.6479 35.5053 19.478 35.5053 21.5836C35.5053 22.1605 35.7191 23.2547 35.3515 23.7141C34.7877 24.4189 35.377 25.2979 35.659 25.9325C36.18 27.1047 35.4086 28.8869 35.0221 29.9409C34.2709 31.9897 36.0593 30.9667 37.4381 31.775C38.4663 32.3777 33.9061 36.045 33.4297 36.4094C32.4238 37.1786 31.4764 38.0446 30.4645 38.7925C30.2484 38.9522 29.3993 39.4794 29.3993 39.8028C29.3993 40.7365 31.6054 41.7207 30.8709 42.8009C30.4299 43.4495 28.7198 43.5109 28.0045 43.7344C27.2815 43.9604 26.5723 44.0403 25.8191 44.2286" stroke="black" stroke-width="2" stroke-linecap="square"/>
<path d="M78.5991 42.6472C77.5909 42.6472 76.3421 42.864 75.3924 42.5154C73.7335 41.9064 73.2618 39.9007 73.2618 38.3422C73.2618 38.1404 73.3605 37.3157 73.2618 37.3099C72.3878 37.2585 71.4628 36.8121 71.307 35.8383C71.1445 34.8224 71.5001 34.4103 71.8671 33.554C71.957 33.3443 72.7209 32.4173 72.548 32.3789C70.8913 32.0108 68.2708 31.8726 68.9569 29.4028C69.0842 28.9444 67.2884 28.7948 66.9801 28.6121C66.1857 28.1413 65.8875 27.4539 65.5085 26.6353C65.2064 25.9827 64.7617 25.1764 64.7617 24.4609C64.7617 23.9763 64.9594 23.5674 64.9594 23.165C64.9594 21.544 66.5429 19.8227 67.3315 18.4427C67.6718 17.8472 68.6474 17.9375 69.2204 17.9375C70.1226 17.9375 70.8085 17.8041 71.6804 17.5861C72.6963 17.3321 71.4508 17.3905 71.1313 16.7515C70.9567 16.4022 71.0874 15.7183 71.0874 15.3238C71.0874 14.5827 70.7171 14.0501 70.692 13.347C70.6546 12.2978 71.3785 12.3722 71.8781 11.6228C72.2023 11.1365 73.0783 11.3965 73.4595 10.92C73.8987 10.371 73.5573 9.54327 73.4595 8.93224C73.1932 7.26801 72.6089 5.12418 74.6895 4.73709C75.4655 4.59271 76.2787 4.75116 77.0616 4.69316C77.6183 4.65193 77.7997 3.90528 78.05 3.5071C78.5157 2.76624 79.0559 2.07864 79.7412 1.53033C80.9178 0.589117 83.0343 0.923127 83.7387 2.33202C84.0819 3.01831 84.1113 5.06131 84.815 5.24226C85.3692 5.38479 88.3646 5.47521 88.4939 6.18672C88.6452 7.01874 89.0819 8.07506 89.4714 8.75652C89.8281 9.38085 91.0263 9.35627 91.6348 9.43741C92.2977 9.52579 92.7519 9.79538 93.4249 9.83276C93.9424 9.86152 94.8431 10.7082 95.2479 11.0188C95.5935 11.284 95.9947 11.4801 95.9947 11.9633C95.9947 12.1991 95.5205 12.4335 95.6872 12.6002C95.9957 12.9087 98.377 12.6057 98.8061 12.6002C99.5276 12.5911 101.332 11.7532 101.332 12.7101C101.332 13.9086 101.53 15.1383 101.53 16.3781C101.53 16.9054 101.666 17.7191 101.508 18.234C101.402 18.576 100.797 19.9081 100.541 20.068C99.7606 20.556 99.2921 21.016 99.3552 22.0887C99.3731 22.3924 100.031 22.5614 100.19 22.8795C100.622 23.7442 100.344 25.0804 100.344 26.0313C100.344 27.2502 99.9252 28.6121 101.628 28.6121C102.157 28.6121 102.101 31.0739 101.683 31.5333C100.561 32.7676 99.6304 32.8729 98.0593 33.3563C96.7786 33.7504 97.8891 33.6929 98.3668 34.6961C98.6529 35.2969 99.1575 35.0828 99.1575 35.8493C99.1575 36.8822 99.3721 38.1507 99.1465 39.1658C99.0853 39.4414 97.9066 39.9493 97.653 40.0664C97.1137 40.3153 96.2967 40.4727 95.6982 40.4727C94.9225 40.4727 95.8468 41.1575 95.9508 41.6148C96.7457 45.1124 93.2585 45.217 90.6574 45.217" stroke="black" stroke-width="2" stroke-linecap="square"/>
<line x1="84" y1="32" x2="84" y2="45" stroke="black" stroke-width="2"/>
<line x1="51.5" y1="19.5" x2="51.5" y2="23.5" stroke="black" stroke-linecap="round"/>
</svg>
