<svg width="105" height="103" viewBox="0 0 105 103" fill="none" xmlns="http://www.w3.org/2000/svg">
<path d="M1.24576 27.8765C0.55493 27.8765 0 27.3228 0 26.6334V12.8576C0 12.1682 0.55493 11.6145 1.24576 11.6145C1.93659 11.6145 2.49152 12.1682 2.49152 12.8576V26.6334C2.49152 27.3228 1.93659 27.8765 1.24576 27.8765Z" fill="#CDAF7D"/>
<path d="M1.24576 57.1741C0.55493 57.1741 0 56.6147 0 55.931V42.1552C0 41.4659 0.55493 40.9121 1.24576 40.9121C1.93659 40.9121 2.49152 41.4715 2.49152 42.1552V55.931C2.49152 56.6204 1.93659 57.1741 1.24576 57.1741Z" fill="#CDAF7D"/>
<path d="M1.24576 86.4717C0.55493 86.4717 0 85.9123 0 85.2286V71.4528C0 70.7635 0.55493 70.2097 1.24576 70.2097C1.93659 70.2097 2.49152 70.7635 2.49152 71.4528V85.2286C2.49152 85.9123 1.93659 86.4717 1.24576 86.4717Z" fill="#CDAF7D"/>
<path d="M15.051 102.005H1.24576C0.55493 102.005 0 101.44 0 100.762C0 100.072 0.55493 99.5186 1.24576 99.5186H15.051C15.7419 99.5186 16.2968 100.072 16.2968 100.762C16.2968 101.445 15.7362 102.005 15.051 102.005Z" fill="#CDAF7D"/>
<path d="M44.4104 102.005H30.6051C29.92 102.005 29.3594 101.44 29.3594 100.762C29.3594 100.072 29.9256 99.5186 30.6051 99.5186H44.4104C45.1013 99.5186 45.6562 100.072 45.6562 100.762C45.6562 101.445 45.1013 102.005 44.4104 102.005Z" fill="#CDAF7D"/>
<path d="M73.7718 102.005H59.9665C59.2756 102.005 58.7207 101.44 58.7207 100.762C58.7207 100.072 59.2756 99.5186 59.9665 99.5186H73.7718C74.4626 99.5186 75.0175 100.072 75.0175 100.762C75.0175 101.445 74.4626 102.005 73.7718 102.005Z" fill="#CDAF7D"/>
<path d="M103.137 102.005H89.3317C88.6409 102.005 88.0859 101.44 88.0859 100.762C88.0859 100.072 88.6409 99.5186 89.3317 99.5186H103.137C103.828 99.5186 104.383 100.072 104.383 100.762C104.383 101.445 103.822 102.005 103.137 102.005Z" fill="#CDAF7D"/>
<path d="M12.5985 86.9068C12.2701 86.9068 11.953 86.7824 11.7152 86.5451C11.2225 86.0535 11.2225 85.2738 11.7152 84.7878L21.4774 75.0408C21.9587 74.5492 22.7515 74.5492 23.2385 75.0408C23.7198 75.5267 23.7198 76.3178 23.2385 76.7981L13.4762 86.5451C13.2327 86.7881 12.91 86.9068 12.5929 86.9068H12.5985Z" fill="#CDAF7D"/>
<path d="M41.3143 39.8611L58.4888 57.0046L87.4697 28.0913L70.2839 10.9478L41.3087 39.8611H41.3143ZM58.4888 60.0106C58.1661 60.0106 57.849 59.8807 57.6055 59.6434L38.6699 40.7426C38.1829 40.2623 38.1829 39.4713 38.6699 38.9853L69.4062 8.31468C69.8989 7.8344 70.6803 7.8344 71.1729 8.31468L90.1142 27.2211C90.5955 27.7014 90.5955 28.4924 90.1142 28.9784L59.3665 59.649C59.1344 59.8807 58.8173 60.0163 58.4832 60.0163L58.4888 60.0106Z" fill="#CDAF7D"/>
<path d="M72.0505 9.19046L89.2306 26.3339L95.4368 20.1354L78.2623 2.99191L72.0505 9.19046ZM89.2306 29.34C88.8965 29.34 88.5851 29.2044 88.3473 28.9727L69.4004 10.0663C68.9134 9.58599 68.9134 8.79493 69.4004 8.30899L77.3789 0.347503C77.8432 -0.115834 78.6756 -0.115834 79.14 0.347503L98.0869 19.2539C98.5682 19.7342 98.5682 20.5253 98.0869 21.0112L90.1083 28.9727C89.8762 29.2044 89.5534 29.34 89.225 29.34H89.2306Z" fill="#CDAF7D"/>
<path d="M30.4131 69.1304C30.0847 69.1304 29.7732 69.0061 29.5297 68.7688C29.1956 68.4354 29.0824 67.9495 29.2183 67.5088L38.3576 39.4825C38.5728 38.8271 39.275 38.4711 39.9318 38.6858C40.5943 38.8949 40.9511 39.5955 40.7303 40.2566L32.3553 65.9492L58.1029 57.5866C58.7598 57.3775 59.4563 57.7335 59.6771 58.3889C59.8923 59.0387 59.5356 59.7394 58.8787 59.9598L30.7925 69.0796C30.6679 69.1135 30.532 69.1361 30.4131 69.1361V69.1304Z" fill="#CDAF7D"/>
<path d="M49.0263 50.5575C48.6979 50.5575 48.3864 50.4445 48.1429 50.1958C47.6503 49.7155 47.6503 48.9245 48.1429 48.4329L78.8792 17.7622C79.3605 17.2707 80.1533 17.2707 80.6459 17.7622C81.1273 18.2538 81.1273 19.0336 80.6459 19.5195L49.9096 50.1902C49.6605 50.4388 49.3434 50.5518 49.0263 50.5518V50.5575Z" fill="#CDAF7D"/>
</svg>
