<svg width="107" height="103" viewBox="0 0 107 103" fill="none" xmlns="http://www.w3.org/2000/svg">
<path d="M78.4956 99.0128H82.8464L83.8846 94.7288C83.9989 93.9817 84.5332 93.3431 85.2908 93.1238C86.4762 92.7803 87.6163 92.3077 88.6798 91.7182C89.3855 91.3286 90.2332 91.4101 90.8439 91.876L94.566 94.1474L97.6395 91.0623L95.3314 87.2585C94.909 86.6537 94.8466 85.8408 95.2222 85.1622C95.8108 84.0917 96.2803 82.9454 96.6233 81.7577C96.8496 80.974 97.5275 80.4182 98.3102 80.3306L102.497 79.3129V74.9493L98.2233 73.9082C97.4778 73.7911 96.842 73.2588 96.6233 72.4985C96.2803 71.3112 95.8108 70.1646 95.2222 69.1C94.8342 68.3923 94.9141 67.5441 95.3785 66.9298L97.6422 63.1978L94.5682 60.1151L90.7767 62.4256C90.1705 62.8527 89.3605 62.9112 88.682 62.5368C87.6163 61.9519 86.4759 61.4781 85.2905 61.133C84.5031 60.9048 83.9543 60.2263 83.8668 59.4425L82.8483 55.2427H78.5004L77.4592 59.5302C77.3425 60.2789 76.8106 60.9107 76.053 61.133C74.8676 61.4781 73.7275 61.9519 72.664 62.5368C71.961 62.9228 71.1135 62.8468 70.5023 62.3789L66.7802 60.1095L63.7044 63.1921L66.0124 67.0002C66.4348 67.6086 66.4972 68.4158 66.1216 69.1002C65.5354 70.1648 65.0635 71.3114 64.7205 72.4988C64.4948 73.2885 63.8163 73.8383 63.0336 73.926L58.8491 74.9436V79.3072L63.1205 80.3484C63.866 80.4655 64.5018 80.9977 64.7205 81.758C65.0635 82.9454 65.5354 84.092 66.1246 85.1625C66.5096 85.8645 66.4326 86.7125 65.9677 87.3273L63.7022 91.0599L66.7778 94.1444L70.5693 91.8285C71.1754 91.4044 71.9855 91.3429 72.664 91.7184C73.7272 92.3079 74.8676 92.7806 76.053 93.124C76.8405 93.3515 77.3871 94.0313 77.477 94.8151L78.4953 99.0133L78.4956 99.0128ZM84.4068 103H76.933C76.0161 103 75.2187 102.37 75.0022 101.477L73.8168 96.5887C73.1262 96.3448 72.4506 96.064 71.792 95.7494L67.5112 98.3634C66.7261 98.8412 65.7194 98.7209 65.0705 98.0704L59.7864 92.7701C59.1378 92.1202 59.0159 91.1101 59.4929 90.325L62.102 86.0275C61.7864 85.3665 61.5077 84.6939 61.2645 83.9976L56.3909 82.8102C55.4996 82.5938 54.873 81.7923 54.873 80.8742V73.381C54.873 72.4567 55.4996 71.6614 56.3909 71.4391L61.2645 70.2517C61.5077 69.5616 61.7888 68.8831 62.102 68.2218L59.4953 63.9283C59.021 63.1446 59.1402 62.1326 59.7888 61.4832L65.0735 56.1837C65.7216 55.5343 66.7283 55.4116 67.5112 55.8913L71.7966 58.5058C72.4528 58.1899 73.1313 57.9093 73.8219 57.6635L75.0073 52.7792C75.223 51.8843 76.021 51.2584 76.9373 51.2584H84.4111C85.3279 51.2584 86.1254 51.8843 86.3417 52.7792L87.5292 57.6635C88.2174 57.9093 88.8959 58.1899 89.5515 58.5058L93.8353 55.8913C94.6182 55.4175 95.6265 55.5343 96.273 56.1837L101.557 61.4832C102.206 62.1326 102.328 63.1446 101.851 63.9283L99.2445 68.2277C99.5577 68.8887 99.8361 69.5672 100.079 70.2576L104.954 71.445C105.843 71.6614 106.472 72.4629 106.472 73.381V80.8742C106.472 81.7985 105.843 82.5938 104.954 82.8161L100.079 84.0035C99.8358 84.6936 99.5547 85.3721 99.2421 86.0334L101.848 90.3274C102.325 91.113 102.203 92.1231 101.555 92.773L96.2701 98.0725C95.622 98.723 94.6152 98.8433 93.8324 98.3661L89.5469 95.7515C88.8907 96.0661 88.2152 96.3464 87.5246 96.5898L86.3392 101.477C86.1205 102.37 85.3226 103 84.4062 103H84.4068Z" fill="#CDAF7D"/>
<path d="M80.6731 70.4331C76.9908 70.4331 73.9967 73.434 73.9967 77.1307C73.9967 80.8217 76.9908 83.8226 80.6731 83.8226C84.3548 83.8226 87.3513 80.8217 87.3513 77.1307C87.3513 73.4337 84.3548 70.4331 80.6731 70.4331ZM80.6731 87.8112C74.7993 87.8112 70.0215 83.021 70.0215 77.1307C70.0215 71.2403 74.7993 66.4437 80.6731 66.4437C86.5463 66.4437 91.3271 71.2403 91.3271 77.1307C91.3271 83.021 86.5463 87.8112 80.6731 87.8112Z" fill="#CDAF7D"/>
<path d="M19.5705 49.2816L12.334 42.0283L15.1448 39.2087L19.5705 43.6427L32.9619 30.2123L35.7727 33.0319L19.5705 49.2816Z" fill="#CDAF7D"/>
<path d="M19.5705 81.6172L12.334 74.3579L15.1448 71.5386L19.5705 75.9783L32.9619 62.5481L35.7727 65.3674L19.5705 81.6172Z" fill="#CDAF7D"/>
<path d="M72.9517 47.667H68.9764V20.4143C68.9764 18.6772 67.5678 17.2672 65.836 17.2672H56.7559V13.2778H65.836C69.7588 13.2778 72.9517 16.4832 72.9517 20.4141V47.6667V47.667Z" fill="#CDAF7D"/>
<path d="M63.0927 103H7.11621C3.19182 103 0 99.7979 0 95.8635V20.4146C0 16.4837 3.19182 13.2783 7.11621 13.2783H16.1953V17.2677H7.11621C5.3839 17.2677 3.97524 18.6774 3.97524 20.4148V95.8638C3.97524 97.6004 5.3839 99.013 7.11621 99.013H63.0927V103V103Z" fill="#CDAF7D"/>
<path d="M24.7414 18.0221H48.2081V12.5235H24.7414V18.0221ZM50.196 22.0115H22.7535C21.6559 22.0115 20.7656 21.1166 20.7656 20.017V10.5292C20.7656 9.42956 21.6559 8.53467 22.7535 8.53467H50.196C51.2931 8.53467 52.1834 9.42956 52.1834 10.5292V20.017C52.1834 21.1166 51.2931 22.0115 50.196 22.0115Z" fill="#CDAF7D"/>
<path d="M45.5209 6.31149H41.5457C41.5457 5.38719 39.5239 3.98913 36.4763 3.98913C33.4292 3.98913 31.4074 5.38719 31.4074 6.31149H27.4316C27.4316 2.77264 31.405 0 36.4763 0C41.5481 0 45.5209 2.77264 45.5209 6.31149Z" fill="#CDAF7D"/>
<path d="M27.4316 10.5292H31.4069V6.31287H27.4316V10.5292Z" fill="#CDAF7D"/>
<path d="M41.5469 10.5292H45.5224V6.31287H41.5469V10.5292Z" fill="#CDAF7D"/>
<path d="M41.1523 41.0339H60.2831V37.0475H41.1523V41.0339Z" fill="#CDAF7D"/>
<path d="M41.1523 48.4567H50.7181V44.47H41.1523V48.4567Z" fill="#CDAF7D"/>
<path d="M41.1523 73.3695H52.6043V69.3831H41.1523V73.3695Z" fill="#CDAF7D"/>
<path d="M41.1523 80.7923H50.7181V76.8059H41.1523V80.7923Z" fill="#CDAF7D"/>
</svg>
