<svg width="116" height="102" viewBox="0 0 116 102" fill="none" xmlns="http://www.w3.org/2000/svg">
<path d="M107.5 79.8282H62.8375C62.0742 79.8282 61.4583 79.2118 61.4583 78.4478C61.4583 77.6839 62.0742 77.0675 62.8375 77.0675H107.5C110.232 77.0675 112.461 74.8365 112.461 72.1019V7.72195C112.461 4.98302 110.232 2.75195 107.5 2.75195H33.7061C30.9738 2.75195 28.7446 4.98302 28.7446 7.72195V28.0707C28.7446 28.8347 28.1288 29.451 27.3655 29.451C26.6022 29.451 25.9863 28.8347 25.9863 28.0707V7.72195C25.9863 3.46381 29.4472 0 33.7018 0H107.495C111.75 0 115.211 3.46381 115.211 7.72195V72.1019C115.211 76.36 111.75 79.8238 107.495 79.8238L107.5 79.8282Z" fill="#CDAF7D"/>
<path d="M70.6057 89.3818C69.8424 89.3818 69.2266 88.7654 69.2266 88.0015V78.4478C69.2266 77.6839 69.8424 77.0675 70.6057 77.0675C71.356 77.0675 71.9805 77.6839 71.9805 78.4478V88.0015C71.9805 88.7654 71.356 89.3818 70.6057 89.3818Z" fill="#CDAF7D"/>
<path d="M70.6322 89.3819C67.9259 89.3819 65.7227 91.5826 65.7227 94.2955C65.7227 97.004 67.9259 99.209 70.6322 99.209C73.3384 99.209 75.5416 97.004 75.5416 94.2955C75.5416 91.5826 73.3384 89.3819 70.6322 89.3819ZM70.6322 101.961C66.408 101.961 62.9688 98.5276 62.9688 94.2955C62.9688 90.0677 66.4123 86.6256 70.6322 86.6256C74.8607 86.6256 78.2912 90.0721 78.2912 94.2955C78.2912 98.5276 74.8607 101.961 70.6322 101.961Z" fill="#CDAF7D"/>
<path d="M95.6306 29.7679C94.8673 29.7679 94.2514 29.1472 94.2514 28.3876V19.09H81.9084C81.1451 19.09 80.5293 18.4737 80.5293 17.7141C80.5293 16.9501 81.1451 16.3337 81.9084 16.3337H95.6263C96.3896 16.3337 97.0054 16.9501 97.0054 17.7141V28.3876C97.0054 29.1472 96.3896 29.7679 95.6263 29.7679H95.6306Z" fill="#CDAF7D"/>
<path d="M95.6297 63.4989H79.0842C78.3209 63.4989 77.7051 62.8825 77.7051 62.1185C77.7051 61.3546 78.3209 60.7382 79.0842 60.7382H94.2506V47.6556C94.2506 46.896 94.8664 46.2797 95.6297 46.2797C96.3931 46.2797 97.0089 46.896 97.0089 47.6556V62.1185C97.0089 62.8825 96.3931 63.4989 95.6297 63.4989Z" fill="#CDAF7D"/>
<path d="M46.535 38.9787C45.776 38.9787 45.1602 38.3623 45.1602 37.5984V17.7141C45.1602 16.9501 45.776 16.3337 46.535 16.3337H62.6598C63.4231 16.3337 64.039 16.9501 64.039 17.7141C64.039 18.4737 63.4231 19.09 62.6598 19.09H47.9141V37.5984C47.9141 38.3623 47.2983 38.9787 46.535 38.9787Z" fill="#CDAF7D"/>
<path d="M95.6289 39.4041H72.283C71.5197 39.4041 70.9082 38.7878 70.9082 38.0238V17.7184C70.9082 16.9545 71.5197 16.3381 72.283 16.3381C73.0463 16.3381 73.6622 16.9545 73.6622 17.7184V36.6478H95.6289C96.3922 36.6478 97.008 37.2686 97.008 38.0282C97.008 38.7921 96.3922 39.4085 95.6289 39.4085V39.4041Z" fill="#CDAF7D"/>
<path d="M57.6126 39.4039H47.0217C46.2584 39.4039 45.6426 38.7876 45.6426 38.0236C45.6426 37.264 46.2584 36.6433 47.0217 36.6433H57.6126C58.3629 36.6433 58.9874 37.264 58.9874 38.0236C58.9874 38.7876 58.3629 39.4039 57.6126 39.4039Z" fill="#CDAF7D"/>
<path d="M28.2375 39.0611C21.9706 39.0611 16.8746 44.157 16.8746 50.4249C16.8746 56.6927 21.9662 61.7886 28.2375 61.7886C34.4957 61.7886 39.5916 56.6927 39.5916 50.4249C39.5916 44.157 34.5 39.0611 28.2375 39.0611ZM28.2375 64.5405C20.457 64.5405 14.125 58.2163 14.125 50.4249C14.125 42.6422 20.457 36.3092 28.2375 36.3092C36.0093 36.3092 42.3413 42.6422 42.3413 50.4249C42.3413 58.2163 36.0093 64.5405 28.2375 64.5405Z" fill="#CDAF7D"/>
<path d="M40.9626 102C40.1993 102 39.5878 101.375 39.5878 100.62V83.8693C39.5878 83.4569 39.7699 83.0619 40.0909 82.8015L53.5788 71.7546L67.4007 60.5124C68.2768 59.7962 68.7842 58.7328 68.7842 57.5912C68.7842 56.7404 68.4807 55.894 67.9385 55.2125C67.3097 54.4443 66.4206 53.9668 65.4144 53.8626C64.4256 53.7541 63.4454 54.0449 62.6648 54.6786L39.0327 73.8858C38.7941 74.0899 38.4819 74.1984 38.1696 74.1984H12.4948C7.12563 74.1984 2.75831 78.5607 2.75831 83.9344V100.62C2.75831 101.375 2.14246 102 1.37915 102C0.615849 102 0 101.375 0 100.62V83.9344C0 77.0458 5.59902 71.4421 12.4905 71.4421H37.6795L60.9257 52.5387C62.2745 51.4449 63.9615 50.9327 65.6963 51.115C67.4311 51.2973 68.9924 52.1351 70.0853 53.4806C71.0178 54.6483 71.5339 56.111 71.5339 57.5869C71.5339 59.5532 70.6621 61.3979 69.1399 62.6523L55.3223 73.8858L42.3374 84.5203V100.62C42.3374 101.375 41.7216 102 40.9583 102H40.9626Z" fill="#CDAF7D"/>
<path d="M11.6096 101.991C10.8463 101.991 10.2305 101.375 10.2305 100.611V92.5853C10.2305 91.8213 10.8463 91.205 11.6096 91.205C12.3729 91.205 12.9844 91.8213 12.9844 92.5853V100.611C12.9844 101.375 12.3729 101.991 11.6096 101.991Z" fill="#CDAF7D"/>
</svg>
