<svg width="109" height="103" viewBox="0 0 109 103" fill="none" xmlns="http://www.w3.org/2000/svg">
<path d="M58.9488 101.999H17.6551C17.0114 101.999 16.4941 101.48 16.4941 100.84V38.6508C16.4941 38.0082 17.0142 37.4919 17.6551 37.4919C18.2904 37.4919 18.816 38.011 18.816 38.6508V99.681H58.9488C59.5813 99.681 60.107 100.197 60.107 100.837C60.107 101.48 59.5813 101.996 58.9488 101.996V101.999Z" fill="#CDAF7D"/>
<path d="M90.9484 101.999H71.1785C70.5348 101.999 70.0176 101.48 70.0176 100.84C70.0176 100.197 70.5376 99.684 71.1785 99.684H89.7902V38.6537C89.7902 38.0111 90.3075 37.4949 90.9484 37.4949C91.5837 37.4949 92.1093 38.014 92.1093 38.6537V100.843C92.1093 101.485 91.5837 102.002 90.9484 102.002V101.999Z" fill="#CDAF7D"/>
<path d="M107.438 41.6418C107.196 41.6418 106.952 41.5688 106.741 41.4145L54.3016 2.60103L1.85377 41.4145C1.33373 41.7933 0.605679 41.6895 0.226193 41.1732C-0.153294 40.6569 -0.0436643 39.9302 0.46794 39.5514L53.6045 0.227275C54.0149 -0.0757582 54.5827 -0.0757582 54.9903 0.227275L108.13 39.5514C108.647 39.9302 108.756 40.6569 108.371 41.1732C108.144 41.479 107.798 41.6418 107.441 41.6418H107.438Z" fill="#CDAF7D"/>
<path d="M19.4813 28.0813C18.8375 28.0813 18.3203 27.5622 18.3203 26.9225V3.90601C18.3203 3.26347 18.8404 2.74719 19.4813 2.74719H34.1435C34.7872 2.74719 35.3044 3.26628 35.3044 3.90601V16.0778C35.3044 16.7204 34.7844 17.2367 34.1435 17.2367C33.4998 17.2367 32.9825 16.7176 32.9825 16.0778V5.06483H20.645V26.9253C20.645 27.5678 20.125 28.0841 19.4841 28.0841L19.4813 28.0813Z" fill="#CDAF7D"/>
<path d="M58.9472 101.999C58.4609 101.999 58.0112 101.699 57.8453 101.219C57.6373 100.61 57.955 99.9505 58.5678 99.7428C62.3064 98.4605 64.8223 95.5004 65.6515 91.4066C66.9755 84.8297 63.7878 76.962 57.5249 71.3756C57.0526 70.9519 57.0048 70.2196 57.4293 69.7398C57.8622 69.26 58.5987 69.2207 59.0737 69.6472C65.9382 75.7752 69.4154 84.4986 67.9284 91.8612C66.9277 96.7967 63.8721 100.369 59.3183 101.94C59.1946 101.979 59.0709 101.999 58.9472 101.999Z" fill="#CDAF7D"/>
<path d="M57.7533 88.7495C52.2494 88.7495 46.588 87.557 41.9217 83.5559C34.3207 77.0575 30.7817 64.7173 31.0909 45.8198C31.0993 45.2418 31.535 44.7592 32.1141 44.6863C41.7615 43.4938 59.4202 42.9635 69.2194 52.8177C74.9398 58.5725 77.1156 66.9957 75.6904 77.86C75.606 78.4913 75.0242 78.9402 74.3889 78.856C73.7564 78.7803 73.3066 78.1911 73.391 77.5597C74.715 67.4446 72.7585 59.6696 67.5694 54.4535C58.7821 45.6206 42.8072 45.8198 33.3987 46.8692C33.2526 64.2207 36.6201 75.966 43.4312 81.8022C50.0652 87.4728 58.8833 86.8864 66.6305 85.5564C67.2573 85.4498 67.8617 85.8735 67.9685 86.5076C68.0782 87.1333 67.6621 87.7338 67.024 87.846C64.1456 88.3398 60.9691 88.7495 57.7505 88.7495H57.7533Z" fill="#CDAF7D"/>
</svg>
