<svg width="1077" height="725" viewBox="0 0 1077 725" fill="none" xmlns="http://www.w3.org/2000/svg">
<path d="M66.15 244.15H514H1010.85V294V399V477V713.35H514H66.15V530.5V477V399V294V244.15Z" stroke="black" stroke-width="0.3"/>
<path d="M576.5 530.5H947.5V576V622V668V713.5H576.5V668V622V576V530.5Z" stroke="black"/>
<rect x="824.5" y="294.5" width="123" height="104" stroke="black"/>
<rect x="830.5" y="299.548" width="111" height="93.9038" stroke="black"/>
<rect x="890.25" y="303.337" width="46.5" height="86.3269" stroke="black" stroke-width="0.5"/>
<rect x="884.25" y="299.298" width="3.5" height="94.4038" stroke="black" stroke-width="0.5"/>
<rect x="835.25" y="303.337" width="46.5" height="86.3269" stroke="black" stroke-width="0.5"/>
<rect x="576.5" y="294.5" width="123" height="104" stroke="black"/>
<rect x="582.5" y="299.548" width="111" height="93.9038" stroke="black"/>
<rect x="642.25" y="303.337" width="46.5" height="86.3269" stroke="black" stroke-width="0.5"/>
<rect x="636.25" y="299.298" width="3.5" height="94.4038" stroke="black" stroke-width="0.5"/>
<rect x="587.25" y="303.337" width="46.5" height="86.3269" stroke="black" stroke-width="0.5"/>
<rect x="82.0066" y="531" width="169.951" height="103" stroke="black"/>
<rect x="90.2786" y="536" width="153.407" height="93" stroke="black"/>
<rect x="164.475" y="535.75" width="5.01454" height="93.5" stroke="black" stroke-width="0.5"/>
<rect x="93.25" y="539.25" width="68.5" height="86.5" stroke="black" stroke-width="0.5"/>
<rect x="172.25" y="539.25" width="68.5" height="86.5" stroke="black" stroke-width="0.5"/>
<rect x="82.5" y="294.5" width="169.951" height="103" stroke="black"/>
<rect x="90.772" y="299.5" width="153.407" height="93" stroke="black"/>
<rect x="164.968" y="299.25" width="5.01454" height="93.5" stroke="black" stroke-width="0.5"/>
<rect x="93.7434" y="302.75" width="68.5" height="86.5" stroke="black" stroke-width="0.5"/>
<rect x="172.743" y="302.75" width="68.5" height="86.5" stroke="black" stroke-width="0.5"/>
<path d="M251.882 530.65L513.995 530.65L514.027 576V622V668V713.35H251.882V668V622V576L251.882 530.65Z" stroke="black" stroke-width="0.3"/>
<rect x="400.5" y="531" width="83" height="182" stroke="black"/>
<rect x="403.5" y="534.017" width="77" height="175.967" stroke="black"/>
<rect x="429.5" y="551.11" width="26" height="142.786" stroke="black"/>
<rect x="79.3" y="476.086" width="434.4" height="25.6136" stroke="black" stroke-width="0.6"/>
<rect x="79.3" y="476.086" width="434.4" height="11.9825" stroke="black" stroke-width="0.6"/>
<rect x="89.9359" y="394.3" width="423.764" height="81.1864" stroke="black" stroke-width="0.6"/>
<rect x="232.454" y="394.3" width="138.728" height="81.1864" stroke="black" stroke-width="0.6"/>
<rect x="240.963" y="407.931" width="121.711" height="53.9243" stroke="black" stroke-width="0.6"/>
<rect x="383.3" y="408.3" width="121.711" height="53.9243" stroke="black" stroke-width="0.6"/>
<rect x="98.4443" y="407.931" width="121.711" height="53.9243" stroke="black" stroke-width="0.6"/>
<rect x="374.972" y="394.3" width="138.728" height="81.1864" stroke="black" stroke-width="0.6"/>
<rect x="89.9359" y="394.3" width="138.728" height="81.1864" stroke="black" stroke-width="0.6"/>
<rect x="400.5" y="294.5" width="83" height="182" stroke="black"/>
<rect x="404.3" y="299.3" width="75.4" height="172.4" stroke="black" stroke-width="0.6"/>
<rect x="406.15" y="301.15" width="71.7" height="168.7" stroke="black" stroke-width="0.3"/>
<rect x="887.261" y="109.332" width="25.2301" height="72.1681" stroke="black"/>
<rect x="884.5" y="104.5" width="30.7522" height="4.52212" stroke="black"/>
<path d="M1063 233.708V234.208L1063.23 233.261L1063 233.708ZM12 233.708L11.7943 233.252L12 234.208V233.708ZM448.5 36.7078V36.2078H448.392L448.294 36.252L448.5 36.7078ZM683.5 36.7078L683.734 36.2657L683.624 36.2078H683.5V36.7078ZM1063 233.208H430V234.208H1063V233.208ZM430 233.208H12V234.208H430V233.208ZM12.2057 234.163L448.706 37.1635L448.294 36.252L11.7943 233.252L12.2057 234.163ZM430.202 234.165L771.772 83.7012L771.369 82.7861L429.798 233.25L430.202 234.165ZM771.772 83.7012L772.202 83.512L771.798 82.5969L771.369 82.7861L771.772 83.7012ZM683.266 37.1498L771.337 83.6857L771.804 82.8016L683.734 36.2657L683.266 37.1498ZM771.337 83.6857L887.266 144.942L887.734 144.058L771.804 82.8016L771.337 83.6857ZM532.5 37.2078H683.5V36.2078H532.5V37.2078ZM448.5 37.2078H495.5V36.2078H448.5V37.2078ZM911.775 157.946L1062.77 234.154L1063.23 233.261L912.225 157.054L911.775 157.946Z" fill="black"/>
<rect x="495.5" y="13.5" width="37" height="105" stroke="black"/>
<rect x="491.5" y="6.5" width="45" height="7" stroke="black"/>
<rect x="504.5" y="0.5" width="17" height="6" stroke="black"/>
<rect x="570.5" y="66.5" width="45" height="29" stroke="black"/>
<rect x="573.5" y="69.5" width="39" height="23" stroke="black"/>
<path d="M65 278.807V724H57.062V285.092L1 266.236V250H7.44961V259.951L65 278.807Z" stroke="black"/>
<path d="M1011 278.807V724H1019.06V285.092L1076 266.236V250H1069.45V259.951L1011 278.807Z" stroke="black"/>
<path d="M1063 250H12M12 244V234H1063V244" stroke="black"/>
<rect x="0.5" y="-0.5" width="1074" height="5" transform="matrix(1 0 0 -1 1 249)" stroke="black"/>
<rect x="65.5" y="713.5" width="944" height="11" stroke="black"/>
<path d="M556 724L575.5 715V724M965.5 724L947 715V724M483.5 715V724M281.5 715V724" stroke="black"/>
</svg>
