<?xml version="1.0" standalone="no"?>
<!DOCTYPE svg PUBLIC "-//W3C//DTD SVG 20010904//EN"
 "http://www.w3.org/TR/2001/REC-SVG-20010904/DTD/svg10.dtd">
<svg version="1.0" xmlns="http://www.w3.org/2000/svg"
 width="1600.000000pt" height="1600.000000pt" viewBox="0 0 1600.000000 1600.000000"
 preserveAspectRatio="xMidYMid meet">

<g transform="translate(0.000000,1600.000000) scale(0.100000,-0.100000)"
fill="#000000" stroke="none">
<path d="M7660 14989 c-2305 -155 -4224 -1905 -4594 -4189 -50 -304 -60 -441
-60 -800 0 -426 26 -678 110 -1065 262 -1209 1017 -2315 2064 -3024 729 -493
1567 -787 2435 -852 88 -7 161 -13 163 -14 5 -4 -141 -422 -183 -526 -123
-301 -273 -545 -455 -744 -307 -334 -583 -579 -981 -871 -126 -92 -229 -172
-229 -176 0 -19 1282 -1720 1293 -1715 665 265 1449 744 2172 1328 1335 1076
2343 2410 2941 3891 387 959 603 1973 654 3068 13 276 13 832 0 1025 -82 1227
-572 2343 -1400 3189 -500 511 -1052 877 -1717 1139 -669 264 -1470 386 -2213
336z m645 -999 c292 -22 531 -60 800 -130 1468 -379 2531 -1529 2819 -3050 65
-339 80 -585 73 -1125 -6 -436 -14 -583 -48 -920 -190 -1887 -947 -3529 -2234
-4844 -497 -507 -1048 -942 -1657 -1306 -171 -103 -566 -312 -572 -303 -73 93
-186 249 -186 255 0 5 66 62 147 128 169 137 328 292 493 480 611 697 933
1311 1036 1977 12 74 18 206 21 475 l5 371 -663 5 c-699 5 -731 6 -1034 58
-980 165 -1887 719 -2498 1527 -781 1030 -1012 2397 -616 3638 361 1131 1222
2052 2329 2492 385 153 795 244 1240 275 110 8 417 6 545 -3z"/>
</g>
</svg>
