<svg width="506" height="735" viewBox="0 0 506 735" fill="none" xmlns="http://www.w3.org/2000/svg">
<path d="M55.3539 148.147L54.5 147.291V148.5V734.5H0.5V1.20964L505.5 507.707V734.5H446V524.5V524.279L445.837 524.13L360.837 446.631L360 445.867V447V734.5H136.5V364.567L207 423.234V672.5V673H207.5H292.5H293V672.5V386.5V386.293L292.854 386.147L55.3539 148.147ZM55.5 734.5V149.709L292 386.707V672H208V423V422.766L207.82 422.616L136.32 363.116L135.5 362.433V363.5V734.5H55.5ZM445 524.721V734.5H361V448.133L445 524.721Z" fill="#D9D9D9" stroke="black"/>
</svg>
