<svg width="107" height="104" viewBox="0 0 107 104" fill="none" xmlns="http://www.w3.org/2000/svg">
<path fill-rule="evenodd" clip-rule="evenodd" d="M19.0977 9.71776L62.009 52.2912V67.1237H70.2598V35.6869L75.0337 30.9504V67.1237H83.0656V11.268L55.43 38.6343L52.1646 35.3945L87.8402 0L87.9047 71.7368L57.2351 71.9109V55.011L49.596 47.4321L49.5316 71.9109H32.159L32.1708 40.8811L36.9448 45.6172V67.1237H44.7576V42.6319L23.8717 21.9103V71.9108H19.0977V9.71776Z" fill="#CDAF7D"/>
<path d="M3.26722 79.1103L8.71994 89.4383L14.0862 79.1103H17.3536L17.3969 95.1666H13.7834L13.7401 85.5545L9.56392 93.5608H7.78965L3.6135 85.7497V95.1664H0V79.1101H3.26736L3.26722 79.1103ZM34.6208 88.9828C34.6208 90.2412 34.325 91.3551 33.7337 92.3242C33.1423 93.2933 32.3055 94.0456 31.2237 94.5807C30.1418 95.1159 28.9012 95.3834 27.5019 95.3834C26.1027 95.3834 24.862 95.1158 23.7802 94.5807C22.6983 94.0454 21.8579 93.2932 21.2594 92.3242C20.6608 91.355 20.3614 90.2412 20.3614 88.9828V79.1103H23.8235V88.8308C23.8235 89.9301 24.1625 90.8162 24.8405 91.4888C25.5185 92.1615 26.4128 92.4978 27.5236 92.4978C28.6054 92.4978 29.4819 92.1615 30.1526 91.4888C30.8234 90.8162 31.1587 89.9303 31.1587 88.8308V79.1103H34.6208V88.9828ZM45.0287 79.1103C46.1539 79.1103 47.1456 79.3236 48.0039 79.7503C48.8622 80.177 49.5293 80.781 50.0054 81.5621C50.4814 82.3432 50.7194 83.2473 50.7194 84.2744C50.7194 85.2724 50.4634 86.1621 49.9512 86.9431C49.4391 87.7243 48.7287 88.3173 47.8199 88.7223L51.996 95.1664H47.9281L44.4011 89.46H41.5665V95.1664H38.0827V79.1101H45.0286L45.0287 79.1103ZM44.3579 86.5743C45.1947 86.5743 45.8653 86.361 46.3702 85.9343C46.8751 85.5076 47.1276 84.9542 47.1276 84.2744C47.1276 83.58 46.904 83.0231 46.4568 82.6036C46.0097 82.1842 45.4109 81.9744 44.6609 81.9744H41.5666V86.5743H44.3579ZM60.6514 79.1103C62.2093 79.1103 63.5869 79.4467 64.7843 80.1193C65.9816 80.7919 66.912 81.7321 67.5756 82.94C68.2391 84.1479 68.571 85.5401 68.571 87.1168C68.571 88.6935 68.2391 90.093 67.5756 91.3153C66.912 92.5376 65.9816 93.485 64.7843 94.1577C63.5869 94.8303 62.2093 95.1667 60.6514 95.1667H54.0951V79.1104H60.6514V79.1103ZM60.6731 92.2807C61.5241 92.2807 62.2743 92.0674 62.9234 91.6407C63.5725 91.214 64.0774 90.61 64.4381 89.829C64.7987 89.0479 64.9791 88.1437 64.9791 87.1168C64.9791 86.1042 64.7989 85.2074 64.4381 84.4263C64.0774 83.6452 63.5727 83.0413 62.9234 82.6146C62.2743 82.1879 61.5241 81.9746 60.6731 81.9746H57.5788V92.281H60.6731V92.2807ZM78.8923 95.3836C77.2189 95.3836 75.7368 95.0401 74.4456 94.353C73.1546 93.6659 72.152 92.6967 71.4379 91.4454C70.7239 90.1941 70.3669 88.7586 70.3669 87.1385C70.3669 85.5184 70.724 84.0827 71.4379 82.8316C72.152 81.5803 73.1546 80.6111 74.4456 79.924C75.7366 79.2369 77.2189 78.8933 78.8923 78.8933C80.5656 78.8933 82.0443 79.2369 83.3281 79.924C84.612 80.6111 85.6109 81.5803 86.3249 82.8316C87.039 84.0827 87.396 85.5184 87.396 87.1385C87.396 88.7586 87.0389 90.1943 86.3249 91.4454C85.6109 92.6966 84.6119 93.6658 83.3281 94.353C82.0443 95.0401 80.5656 95.3836 78.8923 95.3836ZM78.8923 92.4977C79.8588 92.4977 80.7134 92.2735 81.4564 91.8251C82.1993 91.3767 82.7799 90.7475 83.1983 89.9374C83.6166 89.1274 83.8258 88.1944 83.8258 87.1384C83.8258 86.0825 83.6166 85.1458 83.1983 84.3285C82.78 83.5111 82.1993 82.8783 81.4564 82.4299C80.7134 81.9815 79.8588 81.7573 78.8923 81.7573C77.9257 81.7573 77.0675 81.9815 76.3173 82.4299C75.5672 82.8783 74.9866 83.5111 74.5754 84.3285C74.1643 85.1458 73.9588 86.0823 73.9588 87.1384C73.9588 88.1943 74.1643 89.1274 74.5754 89.9374C74.9865 90.7475 75.5672 91.3767 76.3173 91.8251C77.0675 92.2735 77.9257 92.4977 78.8923 92.4977ZM92.8704 79.1103L98.3231 89.4383L103.689 79.1103H106.957L107 95.1666H103.387L103.343 85.5545L99.1671 93.5608H97.3928L93.2166 85.7497V95.1664H89.6031V79.1101H92.8705L92.8704 79.1103Z" fill="#2B2A29"/>
<path d="M54.3087 99.3078H54.8206V100.026C55.0275 99.7519 55.2558 99.5468 55.5055 99.4122C55.7564 99.2776 56.0286 99.2097 56.3234 99.2097C56.6232 99.2097 56.8891 99.2851 57.1211 99.4374C57.3532 99.5897 57.525 99.7947 57.6355 100.053C57.7458 100.309 57.8011 100.71 57.8011 101.255V103.316H57.2892V101.406C57.2892 100.946 57.2691 100.637 57.2302 100.483C57.1675 100.219 57.0522 100.02 56.8827 99.8853C56.7134 99.7519 56.4926 99.6853 56.2204 99.6853C55.9081 99.6853 55.6283 99.7884 55.3824 99.9946C55.1352 100.2 54.9721 100.455 54.8944 100.76C54.8456 100.958 54.8204 101.321 54.8204 101.848V103.316H54.3086V99.3078H54.3087ZM59.0782 97.6624C59.1948 97.6624 59.294 97.7039 59.3767 97.7882C59.4596 97.8713 59.501 97.9732 59.501 98.0901C59.501 98.2059 59.4596 98.3065 59.3767 98.3894C59.2939 98.4738 59.1948 98.5153 59.0782 98.5153C58.9627 98.5153 58.8649 98.4738 58.7822 98.3894C58.6993 98.3064 58.6579 98.2057 58.6579 98.0901C58.6579 97.973 58.6993 97.8712 58.7822 97.7882C58.865 97.7039 58.9627 97.6624 59.0782 97.6624ZM58.8235 99.3078H59.3354V103.316H58.8235V99.3078ZM63.7798 101.987L64.2139 102.216C64.0708 102.494 63.9065 102.719 63.7197 102.89C63.5328 103.06 63.3233 103.191 63.09 103.28C62.8555 103.37 62.592 103.414 62.2971 103.414C61.6423 103.414 61.1317 103.2 60.763 102.772C60.3942 102.344 60.2097 101.861 60.2097 101.323C60.2097 100.816 60.3666 100.363 60.679 99.9669C61.0741 99.4626 61.6047 99.2097 62.2684 99.2097C62.9521 99.2097 63.499 99.4689 63.9068 99.9859C64.1966 100.351 64.3445 100.806 64.3497 101.353H60.7369C60.7469 101.817 60.8962 102.197 61.1835 102.493C61.472 102.79 61.8283 102.938 62.251 102.938C62.4555 102.938 62.6551 102.903 62.8481 102.833C63.0413 102.762 63.2056 102.669 63.3411 102.552C63.4765 102.435 63.6234 102.248 63.7802 101.987L63.7798 101.987ZM63.7848 100.908C63.7158 100.632 63.6155 100.414 63.4838 100.249C63.3508 100.084 63.1763 99.9519 62.9594 99.8513C62.7424 99.7507 62.514 99.7003 62.2757 99.7003C61.8806 99.7003 61.542 99.8261 61.2584 100.079C61.0502 100.264 60.8947 100.539 60.7881 100.908H63.7849L63.7848 100.908ZM65.1006 99.3078H65.6275V99.894C65.7843 99.6626 65.9499 99.4915 66.1242 99.3783C66.2985 99.2664 66.4805 99.2097 66.6687 99.2097C66.8116 99.2097 66.9635 99.2551 67.1253 99.3455L66.8569 99.7782C66.749 99.7318 66.6587 99.7078 66.5847 99.7078C66.4129 99.7078 66.2472 99.7782 66.088 99.9191C65.9287 100.06 65.8069 100.28 65.723 100.577C65.659 100.805 65.6276 101.266 65.6276 101.961V103.316H65.1008V99.3078H65.1006ZM67.4929 99.3078H68.0048V101.178C68.0048 101.635 68.0299 101.948 68.0788 102.121C68.1515 102.366 68.2933 102.56 68.5003 102.702C68.7072 102.844 68.9556 102.916 69.2429 102.916C69.5302 102.916 69.7735 102.846 69.9742 102.708C70.1736 102.568 70.3129 102.387 70.3882 102.161C70.4397 102.006 70.4661 101.679 70.4661 101.178V99.3078H70.9929V101.273C70.9929 101.825 70.9289 102.24 70.7997 102.519C70.6718 102.8 70.4773 103.019 70.2189 103.176C69.9605 103.334 69.6368 103.414 69.2467 103.414C68.8565 103.414 68.5316 103.334 68.2707 103.176C68.0098 103.019 67.8141 102.797 67.6861 102.514C67.5569 102.231 67.4929 101.805 67.4929 101.236V99.3078ZM76.0196 100.14L75.6119 100.395C75.2582 99.9267 74.7752 99.6926 74.163 99.6926C73.6738 99.6926 73.2672 99.8499 72.9436 100.163C72.6212 100.476 72.4594 100.856 72.4594 101.304C72.4594 101.596 72.5333 101.87 72.6827 102.127C72.8306 102.383 73.0352 102.583 73.2949 102.725C73.5533 102.868 73.8443 102.938 74.1667 102.938C74.7563 102.938 75.238 102.704 75.6118 102.236L76.0194 102.505C75.8275 102.793 75.5703 103.016 75.2479 103.176C74.9242 103.334 74.5567 103.414 74.144 103.414C73.5091 103.414 72.9836 103.212 72.5658 102.811C72.1481 102.408 71.9399 101.92 71.9399 101.344C71.9399 100.958 72.0377 100.598 72.2334 100.266C72.4279 99.9341 72.6963 99.675 73.0375 99.4888C73.3799 99.3025 73.7613 99.2094 74.1841 99.2094C74.45 99.2094 74.7059 99.2497 74.9531 99.3302C75.1989 99.4108 75.4085 99.5165 75.5803 99.646C75.7535 99.7756 75.899 99.9404 76.0194 100.14L76.0196 100.14ZM77.0055 97.7605H77.5174V100.031C77.7255 99.7569 77.9565 99.5506 78.206 99.4147C78.457 99.2776 78.7279 99.2097 79.0202 99.2097C79.32 99.2097 79.5859 99.2851 79.8179 99.4374C80.05 99.5897 80.2218 99.7947 80.3323 100.05C80.4426 100.307 80.4978 100.708 80.4978 101.255V103.316H79.986V101.406C79.986 100.946 79.9673 100.637 79.9308 100.483C79.8668 100.219 79.7501 100.02 79.582 99.8853C79.4139 99.7519 79.1931 99.6853 78.9197 99.6853C78.6073 99.6853 78.3276 99.7884 78.0804 99.9946C77.8333 100.2 77.6702 100.455 77.5912 100.76C77.5423 100.956 77.5172 101.318 77.5172 101.848V103.316H77.0054V97.7605H77.0055ZM83.4911 99.2096C84.107 99.2096 84.6189 99.4323 85.024 99.8789C85.3928 100.285 85.5772 100.767 85.5772 101.323C85.5772 101.882 85.3828 102.37 84.9927 102.787C84.6038 103.205 84.102 103.414 83.4911 103.414C82.8764 103.414 82.3734 103.205 81.9846 102.787C81.5944 102.37 81.4 101.882 81.4 101.323C81.4 100.77 81.5844 100.289 81.9532 99.8828C82.3583 99.4336 82.8714 99.2097 83.4911 99.2097V99.2096ZM83.4886 99.7153C83.0609 99.7153 82.6946 99.8726 82.3872 100.188C82.0798 100.504 81.9268 100.886 81.9268 101.334C81.9268 101.622 81.997 101.891 82.1362 102.142C82.2767 102.391 82.4661 102.583 82.7046 102.719C82.9416 102.855 83.2039 102.923 83.4886 102.923C83.7734 102.923 84.0356 102.855 84.2726 102.719C84.5109 102.583 84.7004 102.391 84.8408 102.142C84.98 101.891 85.0504 101.622 85.0504 101.334C85.0504 100.886 84.8961 100.504 84.5875 100.188C84.2801 99.8725 83.9139 99.7153 83.4886 99.7153ZM86.5243 99.3077H87.0362V100.001C87.2156 99.7454 87.3987 99.5581 87.5881 99.4398C87.8478 99.2863 88.1212 99.2096 88.4073 99.2096C88.6017 99.2096 88.7849 99.2473 88.9592 99.3241C89.1335 99.3995 89.2754 99.5014 89.3857 99.6272C89.4961 99.7543 89.5914 99.9355 89.673 100.172C89.8436 99.8574 90.0582 99.6185 90.3141 99.4549C90.5713 99.2914 90.8472 99.2096 91.1433 99.2096C91.4193 99.2096 91.6639 99.28 91.8746 99.4197C92.0867 99.5593 92.2434 99.7543 92.3462 100.005C92.4491 100.255 92.5006 100.63 92.5006 101.131V103.316H91.9737V101.129C91.9737 100.699 91.9436 100.405 91.8821 100.244C91.8206 100.083 91.7165 99.9532 91.5685 99.8551C91.4205 99.7569 91.2448 99.708 91.0391 99.708C90.7907 99.708 90.5624 99.7821 90.3567 99.9294C90.1498 100.077 89.9992 100.273 89.9038 100.518C89.8085 100.763 89.7609 101.173 89.7609 101.747V103.316H89.249V101.265C89.249 100.782 89.2189 100.454 89.1587 100.28C89.0984 100.107 88.9943 99.9683 88.845 99.864C88.6944 99.7596 88.5176 99.708 88.3118 99.708C88.0735 99.708 87.8514 99.7796 87.6443 99.9231C87.4374 100.066 87.2843 100.26 87.1852 100.503C87.0861 100.746 87.0359 101.118 87.0359 101.619V103.316H86.524V99.308L86.5243 99.3077ZM95.4799 99.2096C96.0959 99.2096 96.6077 99.4323 97.0128 99.8789C97.3816 100.285 97.5661 100.767 97.5661 101.323C97.5661 101.882 97.3716 102.37 96.9815 102.787C96.5926 103.205 96.0909 103.414 95.4799 103.414C94.8652 103.414 94.3623 103.205 93.9734 102.787C93.5832 102.37 93.3888 101.882 93.3888 101.323C93.3888 100.77 93.5733 100.289 93.942 99.8828C94.3471 99.4336 94.8602 99.2097 95.4799 99.2097V99.2096ZM95.4774 99.7153C95.0497 99.7153 94.6834 99.8726 94.376 100.188C94.0686 100.504 93.9156 100.886 93.9156 101.334C93.9156 101.622 93.9859 101.891 94.1251 102.142C94.2655 102.391 94.455 102.583 94.6934 102.719C94.9305 102.855 95.1928 102.923 95.4774 102.923C95.7622 102.923 96.0244 102.855 96.2615 102.719C96.4998 102.583 96.6892 102.391 96.8297 102.142C96.9689 101.891 97.0392 101.622 97.0392 101.334C97.0392 100.886 96.8849 100.504 96.5764 100.188C96.2689 99.8725 95.9027 99.7153 95.4774 99.7153ZM100.53 99.743L100.199 100.085C99.9245 99.8186 99.6548 99.6853 99.3927 99.6853C99.2258 99.6853 99.0827 99.7407 98.9637 99.8513C98.8444 99.9607 98.7842 100.09 98.7842 100.238C98.7842 100.367 98.8332 100.492 98.9311 100.609C99.0289 100.729 99.2358 100.87 99.5495 101.032C99.9309 101.23 100.191 101.422 100.329 101.606C100.463 101.792 100.53 102.002 100.53 102.235C100.53 102.565 100.415 102.843 100.184 103.072C99.9534 103.299 99.6648 103.414 99.3185 103.414C99.0877 103.414 98.8682 103.363 98.6575 103.263C98.4481 103.162 98.2749 103.024 98.1369 102.846L98.4606 102.478C98.7227 102.775 99.0025 102.923 99.2973 102.923C99.503 102.923 99.6787 102.856 99.8242 102.724C99.9685 102.592 100.041 102.436 100.041 102.258C100.041 102.11 99.9936 101.98 99.8983 101.864C99.8017 101.751 99.5859 101.609 99.2497 101.438C98.8884 101.251 98.6425 101.068 98.5133 100.887C98.3828 100.705 98.3176 100.499 98.3176 100.266C98.3176 99.9633 98.4217 99.7117 98.6288 99.5105C98.8369 99.3105 99.0991 99.2099 99.4165 99.2099C99.7853 99.2099 100.157 99.3873 100.53 99.7432V99.743ZM99.4101 97.4285H100.199L99.1179 98.5606H98.611L99.4101 97.4285ZM105.319 100.14L104.911 100.395C104.557 99.9267 104.074 99.6926 103.462 99.6926C102.973 99.6926 102.566 99.8499 102.243 100.163C101.92 100.476 101.758 100.856 101.758 101.304C101.758 101.596 101.832 101.87 101.982 102.127C102.13 102.383 102.334 102.583 102.594 102.725C102.852 102.868 103.143 102.938 103.466 102.938C104.055 102.938 104.537 102.704 104.911 102.236L105.319 102.505C105.127 102.793 104.869 103.016 104.547 103.176C104.223 103.334 103.856 103.414 103.443 103.414C102.808 103.414 102.283 103.212 101.865 102.811C101.447 102.408 101.239 101.92 101.239 101.344C101.239 100.958 101.337 100.598 101.533 100.266C101.727 99.9341 101.995 99.675 102.337 99.4888C102.679 99.3025 103.06 99.2094 103.483 99.2094C103.749 99.2094 104.005 99.2497 104.252 99.3302C104.498 99.4108 104.708 99.5165 104.879 99.646C105.053 99.7756 105.198 99.9404 105.319 100.14L105.319 100.14ZM106.484 97.6624C106.601 97.6624 106.7 97.7039 106.783 97.7882C106.865 97.8713 106.907 97.9732 106.907 98.0901C106.907 98.2059 106.865 98.3065 106.783 98.3894C106.7 98.4738 106.601 98.5153 106.484 98.5153C106.369 98.5153 106.271 98.4738 106.188 98.3894C106.105 98.3064 106.064 98.2057 106.064 98.0901C106.064 97.973 106.105 97.8712 106.188 97.7882C106.271 97.7039 106.369 97.6624 106.484 97.6624ZM106.229 99.3078H106.741V103.316H106.229V99.3078Z" fill="#B2B3B3"/>
<path fill-rule="evenodd" clip-rule="evenodd" d="M51.9541 100.721C52.3009 100.721 52.5821 101.003 52.5821 101.351C52.5821 101.699 52.3009 101.981 51.9541 101.981C51.6072 101.981 51.3262 101.699 51.3262 101.351C51.3262 101.003 51.6074 100.721 51.9541 100.721Z" fill="#CDAF7D"/>
</svg>
