<svg width="249" height="187" viewBox="0 0 249 187" fill="none" xmlns="http://www.w3.org/2000/svg">
<path d="M109.675 41.5C109.675 55.6065 104.237 65.4636 96.6053 71.8029C88.9589 78.1543 79.0775 81 70.1748 81C64.6552 81 58.0446 79.0024 51.2018 75.8963C44.3685 72.7945 37.3474 68.6076 31.0198 64.2749C24.6926 59.9425 19.0702 55.4721 15.0343 51.8094C13.0152 49.9771 11.4014 48.3544 10.2966 47.0576C9.74349 46.4083 9.3268 45.8511 9.05122 45.3975C8.76226 44.9219 8.6748 44.6335 8.6748 44.5C8.6748 34.7224 15.787 23.7262 26.6719 15.1426C37.5381 6.57385 52.0569 0.5 66.6748 0.5C77.577 0.5 88.3333 5.2918 96.3669 12.8303C104.4 20.3685 109.675 30.6181 109.675 41.5Z" fill="black" stroke="black"/>
<path d="M95.1741 186C-39.8489 140.586 3.17386 29 26.1738 15.5L46.5 73.5C23 63 4.64778 128.382 95.1741 172.329L95.1741 186Z" fill="black" stroke="black"/>
<path d="M247.675 41.5C247.675 55.6065 242.237 65.4636 234.605 71.8029C226.959 78.1543 217.077 81 208.175 81C202.655 81 196.045 79.0024 189.202 75.8963C182.368 72.7945 175.347 68.6076 169.02 64.2749C162.693 59.9425 157.07 55.4721 153.034 51.8094C151.015 49.9771 149.401 48.3544 148.297 47.0576C147.743 46.4083 147.327 45.8511 147.051 45.3975C146.762 44.9219 146.675 44.6335 146.675 44.5C146.675 34.7224 153.787 23.7262 164.672 15.1426C175.538 6.57385 190.057 0.5 204.675 0.5C215.577 0.5 226.333 5.2918 234.367 12.8303C242.4 20.3685 247.675 30.6181 247.675 41.5Z" fill="black" stroke="black"/>
<path d="M233.174 186C98.1511 140.586 141.174 29 164.174 15.5L184.5 73.5C161 63 142.648 128.382 233.174 172.329L233.174 186Z" fill="black" stroke="black"/>
</svg>
